<svg id="Layer_1" data-name="Layer 1" xmlns="http://www.w3.org/2000/svg" viewBox="0 0 895.28 78.26"><defs><style>.cls-1{fill:#ebebf2;}</style></defs><title>daniel garcia needs a part-time job-webwhite</title><path class="cls-1" d="M240.44,74.17c-0.25-1.2-.54-2.6-0.91-4-0.5-1.94-1.07-3.88-1.61-5.82a3.55,3.55,0,0,0-.45-0.86,0.72,0.72,0,0,0-.91-0.25,5.15,5.15,0,0,1-1.61.12c-1.61,0-3.22-.17-4.83-0.17a9,9,0,0,1-3.59-.7,7.31,7.31,0,0,1-4.17-5.37,12.55,12.55,0,0,1-.08-1.73,11,11,0,0,1-.17-1.12,7.43,7.43,0,0,1,.12-2.15,22.91,22.91,0,0,1,2.06-5.2,7.48,7.48,0,0,1,2.73-2.6c0.79-.41,1.53-0.95,2.31-1.36a9.2,9.2,0,0,1,3.26-1,10.84,10.84,0,0,0,1.57-.41,1.84,1.84,0,0,1,2.19,1.2,11.69,11.69,0,0,1,.41,2.64,2.87,2.87,0,0,0,1,2.27A16.12,16.12,0,0,1,242,53.28a6.5,6.5,0,0,1,.45,3.76,18.56,18.56,0,0,0-.45,4,12.75,12.75,0,0,0,.66,3,18.55,18.55,0,0,1,1.07,4.79c0.12,1.57.54,3.1,0.79,4.67a20.52,20.52,0,0,1,.08,2.19,13.74,13.74,0,0,0,.21,2.31,4.5,4.5,0,0,1-.21,2.85,16,16,0,0,1-5,6.36,3.81,3.81,0,0,1-2.48.83,1.13,1.13,0,0,0-.62.21,2.71,2.71,0,0,1-2.89.25,6.38,6.38,0,0,1-2.85-2.35,33.19,33.19,0,0,1-2-3.42,8.64,8.64,0,0,1-.62-3.71,0.65,0.65,0,0,1,1.12-.58,4.28,4.28,0,0,1,.83.91,12.51,12.51,0,0,1,1.07,1.94,3.77,3.77,0,0,0,1.24,1.44A13.81,13.81,0,0,0,234.15,84a0.75,0.75,0,0,0,.7-0.12A19,19,0,0,0,237,81.94c1-1.07,1.94-2.23,2.85-3.39a2,2,0,0,0,.33-1C240.27,76.48,240.35,75.41,240.44,74.17Zm-6-24.74a1.24,1.24,0,0,0-.74-1.49,1.75,1.75,0,0,1-.58-0.37,0.37,0.37,0,0,0-.58,0,1.18,1.18,0,0,1-.7.21,1,1,0,0,0-1,.5,4,4,0,0,1-.7.74A6.17,6.17,0,0,0,228,51.75c-0.29.86-.45,1.77-0.66,2.68a5.47,5.47,0,0,0-.17,1.41,8.64,8.64,0,0,0,.33,1.73,1.51,1.51,0,0,0,.54.7c0.45,0.29,1,.45,1.44.7a7.91,7.91,0,0,0,4.46.62,3,3,0,0,1,1.7,0,1.4,1.4,0,0,0,.86-0.37,0.65,0.65,0,0,0,.12-0.58c-0.21-.91-0.45-1.77-0.66-2.64-0.37-1.49-.74-3-1.12-4.5C234.7,50.72,234.53,50,234.41,49.44Z" transform="translate(-22.93 -10.54)"/><path class="cls-1" d="M28.7,51.09c-0.21,1.77.79,3.18,1.77,4.5A30.61,30.61,0,0,0,33,58.4a1.86,1.86,0,0,0,.62.5A13.91,13.91,0,0,0,36,60a3.13,3.13,0,0,0,3-.74,6.33,6.33,0,0,0,2.23-4c0.21-1.07.33-2.19,0.5-3.3A7.13,7.13,0,0,1,42,50.3a8,8,0,0,0,.41-4.83,27.22,27.22,0,0,0-.7-3.68c-0.5-1.7-1.15-3.3-1.73-5-0.37-1-.7-2.11-1.12-3.1-0.86-2.11-1.77-4.17-2.73-6.24-0.66-1.44-1.49-2.85-2.19-4.29-0.62-1.28-1.2-2.6-1.82-3.88-0.33-.66-0.58-1.36-0.95-2a7.16,7.16,0,0,1-1-4,3.87,3.87,0,0,1,1.07-2.44,1.23,1.23,0,0,1,1.73,0,2.45,2.45,0,0,1,.91,2,1.19,1.19,0,0,0,0,.37c0.5,1.2,1,2.39,1.57,3.55,0.25,0.5.58,0.91,0.86,1.41,0.58,1,1.15,2.11,1.7,3.18s1,2.06,1.49,3.14c0.37,0.83.62,1.7,1,2.52A33.48,33.48,0,0,0,42,30.54c0.95,1.7,1.65,3.47,2.52,5.2A18.42,18.42,0,0,1,46.34,42c0.21,1.77,0,3.59.21,5.37s-0.41,3.68-.66,5.53a22.08,22.08,0,0,1-1.12,4.33,12.16,12.16,0,0,1-3,4.58,5.73,5.73,0,0,1-1.44.95,16,16,0,0,1-1.77.7,6.16,6.16,0,0,1-4.29-.21,14.61,14.61,0,0,1-6.69-5.33c-0.7-.91-1.41-1.77-2.11-2.64A11.64,11.64,0,0,1,23,50a6.86,6.86,0,0,1,.86-4.58,40,40,0,0,1,2.85-4.09,3.42,3.42,0,0,1,2.56-1.12,15.46,15.46,0,0,1,5.66.54A16.43,16.43,0,0,1,38,42a19,19,0,0,1,2.06,1.07,2.81,2.81,0,0,1,.95,1,1.38,1.38,0,0,1-.17,1.65,1.57,1.57,0,0,1-1.77.41,12.14,12.14,0,0,0-3.35-.86,6.2,6.2,0,0,0-5.45,1.57C28.86,48,28.66,49.44,28.7,51.09Z" transform="translate(-22.93 -10.54)"/><path class="cls-1" d="M158.56,59.76a2.47,2.47,0,0,1,.7-0.54l2.68-.95a0.75,0.75,0,0,1,1,.29,1.09,1.09,0,0,1,0,.95c-1.07,1.2-2.15,2.39-3.3,3.51-0.41.41-1.15,0.54-1.57,1a13.14,13.14,0,0,1-1.94,1.49A13.68,13.68,0,0,1,151,67.61a7.18,7.18,0,0,1-3.51.12,13,13,0,0,1-2.15-.45,31.87,31.87,0,0,1-3.14-1.65c-0.33-.17-0.7-0.33-1.07-0.5a7.86,7.86,0,0,1-4-4.09,2.41,2.41,0,0,0-.54-0.74,7.56,7.56,0,0,1-1.49-3.42,13,13,0,0,1-.58-4.54,14.79,14.79,0,0,1,.41-1.86c0.17-.66.41-1.32,0.62-2a8.75,8.75,0,0,1,2.15-3.68,14.36,14.36,0,0,0,1.7-1.86c0.86-1.32,2.31-1.53,3.55-2.15a5.67,5.67,0,0,1,5.82.37,8,8,0,0,1,1.36,1.32,3.83,3.83,0,0,0,.5.62A4.46,4.46,0,0,1,152.2,46a6.75,6.75,0,0,1-.41,4.42,5.12,5.12,0,0,0-.25.79,9.06,9.06,0,0,1-5,6c-1,.5-1.94,1-2.89,1.57a1.7,1.7,0,0,1-.45.12c-0.45,0-.66.29-0.41,0.7a5.12,5.12,0,0,0,3.06,2.81,8.61,8.61,0,0,0,3.51.5,9,9,0,0,1,1,.17,3.37,3.37,0,0,0,1.12-.17c0.83-.21,1.61-0.5,2.39-0.74l0.25-.12c0.79-.54,1.53-1.12,2.31-1.57a7.9,7.9,0,0,1,1.65-.66A0.86,0.86,0,0,1,158.56,59.76Zm-16.68-6.11a4.88,4.88,0,0,0,2.89-1.36,13.58,13.58,0,0,0,2.64-3.1,4.11,4.11,0,0,0,.62-2.56,1.41,1.41,0,0,0-1.77-1.2,4.56,4.56,0,0,1-.79.33,4.26,4.26,0,0,0-2.73,2.39c-0.41.86-.83,1.73-1.28,2.56a5.36,5.36,0,0,0-.83,2,1.15,1.15,0,0,0,.12.7A7.28,7.28,0,0,0,141.88,53.65Z" transform="translate(-22.93 -10.54)"/><path class="cls-1" d="M100.17,46.22a4.92,4.92,0,0,0-.83.41,6.07,6.07,0,0,0-1.24.74c-1,1-2,2-2.93,3.1A10.35,10.35,0,0,0,94.11,52c-0.33.58-.62,1.2-1,1.77a5.56,5.56,0,0,0-.91,2.89c0,0.7,0,1.41,0,2.11A2.26,2.26,0,0,1,91,61a2.63,2.63,0,0,1-2.89,0,7.43,7.43,0,0,1-2.81-3.76c-0.66-1.61-1.28-3.26-2-4.87C83,51.58,82.55,50.79,82.22,50a3.5,3.5,0,0,1-.12-1.49A1,1,0,0,1,83,47.61a4.17,4.17,0,0,1,4,1.24c0.25,0.29.5,0.54,0.74,0.79,0.54,0.5.66,0.5,1.2,0a4.17,4.17,0,0,0,.54-0.7c1-1.15,2-2.27,2.93-3.47a21.14,21.14,0,0,1,3.22-3.18,7.54,7.54,0,0,1,4.62-1.65,4.54,4.54,0,0,1,3.14,1.57,6.56,6.56,0,0,1,1.49,2.11c0.58,1.24,1.24,2.39,1.73,3.68a6.6,6.6,0,0,1,.45,2.19,7.57,7.57,0,0,0,.7,2.85q1.24,3.22,2.35,6.44a7.89,7.89,0,0,0,.91,1.61,4.87,4.87,0,0,1,.62,1.32c0.33,1.28-1.07,2.19-2,2.27a4,4,0,0,1-3.47-1.32,7.49,7.49,0,0,1-1.86-3.47c-0.29-1.32-.83-2.6-1.15-3.92s-0.45-2.68-.79-4c-0.41-1.65-.62-3.42-1.61-4.87A4.49,4.49,0,0,0,100.17,46.22Z" transform="translate(-22.93 -10.54)"/><path class="cls-1" d="M56.82,53.9a5.35,5.35,0,0,1,.83-3.18,18.42,18.42,0,0,1,3.59-4.58,13.84,13.84,0,0,1,2.15-1.94,6,6,0,0,1,4.79-.54,11.06,11.06,0,0,1,5.91,3.55,8,8,0,0,1,.45.66c0.58,0.95,1.15,1.9,1.7,2.89a7,7,0,0,1,.66,1.65c0.41,1.57.74,3.18,1.12,4.75,0,0.08,0,.21.08,0.29a11.5,11.5,0,0,1,1.61,3.71,5.11,5.11,0,0,0,2.06,2.68,2.94,2.94,0,0,1,.58.62,0.94,0.94,0,0,1-.45,1.36,5.12,5.12,0,0,1-3.59.25,3.5,3.5,0,0,1-1.24-.79,15.6,15.6,0,0,1-3.18-3.8,0.49,0.49,0,0,0-.66-0.29c-1.73.45-3.39,1.36-5.2,1.15a39.13,39.13,0,0,1-4.79-.91A7.66,7.66,0,0,1,58.31,58a4.65,4.65,0,0,0-.41-0.58A4.59,4.59,0,0,1,56.82,53.9Zm14.24,1.81c-0.08-.95-0.12-1.61-0.25-2.27-0.17-1-.37-2.06-0.5-3.1a1.25,1.25,0,0,0-1-1.41,0.32,0.32,0,0,1-.17-0.08,1.17,1.17,0,0,0-1.36,0c-0.83.45-1.61,0.95-2.44,1.41a1.14,1.14,0,0,0-.41.33,6.72,6.72,0,0,0-1.7,3.71,4.28,4.28,0,0,0,.12,1.9A2.88,2.88,0,0,0,66,57.87c0.7,0.08,1.41.17,2.06,0.29a2.33,2.33,0,0,0,2.44-.83A6,6,0,0,0,71.06,55.71Z" transform="translate(-22.93 -10.54)"/><path class="cls-1" d="M252.86,56.62a6.17,6.17,0,0,1,.86-2.89,2.39,2.39,0,0,0,.12-0.54c0.29-1.36.62-2.73,1.86-3.55a3.4,3.4,0,0,0,1.15-1.41,5.13,5.13,0,0,1,2.27-1.9,6.79,6.79,0,0,1,5.12-.79A14.49,14.49,0,0,1,267.68,47a3.26,3.26,0,0,1,1.53,2.48V49.6c-0.45.79,0.21,1.2,0.58,1.7a36.81,36.81,0,0,1,3,5.33c0.29,0.58.58,1.12,0.83,1.7a5.7,5.7,0,0,1,.41,3.42,8.57,8.57,0,0,0,.33,3.22,1.4,1.4,0,0,1,0,.58c-0.12.41,0,.5,0.41,0.45a1.66,1.66,0,0,1,1.65,1.94c-0.37,1.9-1.32,2.64-3.26,3.06a1.63,1.63,0,0,1-1.49-.5,4.06,4.06,0,0,1-1.41-2.93,10.37,10.37,0,0,0-.83-3.88c-0.37-.91-0.7-1.86-1.07-2.77a0.86,0.86,0,0,0-.54-0.37,0.5,0.5,0,0,0-.5.25,2.44,2.44,0,0,1-1.2,1.36,9.1,9.1,0,0,1-5.66,1.9A8.82,8.82,0,0,1,255,62a6,6,0,0,1-1.94-3.63A5.69,5.69,0,0,0,252.86,56.62ZM265.62,51c-0.37-.17-0.7-0.29-1-0.41a2.76,2.76,0,0,0-2.85.37,15,15,0,0,0-2.81,3,5.19,5.19,0,0,0-.91,4.29,1.63,1.63,0,0,0,.45.7c0.5,0.45,1.07.79,1.53,1.24s0.58,0.66,1,.21c0,0,.17,0,0.25-0.08a15,15,0,0,0,1.94-.58,2.17,2.17,0,0,0,1.53-1.41,19.23,19.23,0,0,0,.37-2.15C265.29,54.47,265.46,52.7,265.62,51Z" transform="translate(-22.93 -10.54)"/><path class="cls-1" d="M368,61.66c0.29,1.12.54,2.27,0.83,3.39s0.62,2.11,1,3.14a9.65,9.65,0,0,0,.83,1.41,1.37,1.37,0,0,1,.17,1.7,1.83,1.83,0,0,1-1.86.62,5,5,0,0,1-3.14-2.81,21.27,21.27,0,0,1-1.07-3.26,3.4,3.4,0,0,0-1-1.94c-0.25-.17-0.25-0.79-0.79-0.54a10.44,10.44,0,0,0-.95.45l-1.61,1a9,9,0,0,1-5.29,1.65,6.65,6.65,0,0,1-4.62-1.61,7,7,0,0,1-1.82-2.93,12.55,12.55,0,0,0-.91-2.06,4.27,4.27,0,0,1-.5-3.26,11.27,11.27,0,0,1,2.85-5.12c0.54-.54,1-1.15,1.53-1.7a8,8,0,0,1,4-1.61A6.51,6.51,0,0,1,361,49.72a13.44,13.44,0,0,1,2.06,1.73,6.14,6.14,0,0,0,1.7,1.41,4.23,4.23,0,0,1,1.9,2.81c0.45,1.57.86,3.14,1.28,4.71,0.12,0.41.12,0.83,0.21,1.24C368.11,61.62,368,61.66,368,61.66Zm-12.59,1.2a10.82,10.82,0,0,1,1.12-.12A4.66,4.66,0,0,0,360,61a9.94,9.94,0,0,0,2.39-5.33,2.15,2.15,0,0,0-1.82-2.73c-0.21,0-.37-0.12-0.58-0.17a4.86,4.86,0,0,0-4.54.74c-0.74.62-1.36,1.36-2,2a6.55,6.55,0,0,0-1.61,2.73,0.49,0.49,0,0,1-.17.29,0.63,0.63,0,0,0-.12.95c0.08,0.17.12,0.33,0.21,0.5A4.1,4.1,0,0,0,355.39,62.86Z" transform="translate(-22.93 -10.54)"/><path class="cls-1" d="M174,66.74c-0.12-.95-0.29-1.86-0.37-2.81s-0.12-1.9-.12-2.85a23.58,23.58,0,0,0-.66-5c-0.17-1-.21-2-0.37-3s-0.33-1.82-.5-2.73c-0.25-1.36-.45-2.77-0.74-4.13-0.33-1.53-.83-3-1.15-4.54a20.71,20.71,0,0,1-.45-2.77,19.36,19.36,0,0,0-.91-3.76c-0.54-2-1.24-3.88-1.7-5.86a13.4,13.4,0,0,1-.08-3.39,1.38,1.38,0,0,1,1.28-1.28,1.67,1.67,0,0,1,1.82.79,7.25,7.25,0,0,1,.66,1.57c0.79,2.52,1.53,5.08,2.23,7.64,0.41,1.53.74,3.06,1.12,4.58s0.74,3.26,1.07,4.91c0.17,0.91.25,1.82,0.41,2.73,0.29,1.32.7,2.6,0.95,3.92s0.25,2.44.37,3.63c0.21,1.86.37,3.68,0.58,5.53a11.56,11.56,0,0,1,.08,1.2c0,1.2.08,2.44,0.17,3.63a0.9,0.9,0,0,0,0,.33c0.74,0.95.08,2,.29,3s-1.32,2.19-2.31,2c-1.32-.21-1.57-1.12-1.82-2.27a5.32,5.32,0,0,1,0-1.15C174,66.78,174,66.78,174,66.74Z" transform="translate(-22.93 -10.54)"/><path class="cls-1" d="M310.59,58.85c0.17-1.57.33-3.14,0.5-4.71,0-.54.08-1.07,0.17-1.61a5.89,5.89,0,0,1,1.44-2.73,12.66,12.66,0,0,1,3.3-3,3.38,3.38,0,0,1,2.52-.41,3.93,3.93,0,0,1,2.31,1.2,2.4,2.4,0,0,1-.74,3.88,8.4,8.4,0,0,0-3.26,2.89,4.26,4.26,0,0,0-.74,2.48c0,1.07-.12,2.15-0.08,3.22a5.28,5.28,0,0,0,.86,2.6,4.58,4.58,0,0,0,2.93,1.77,5.26,5.26,0,0,0,3.92-.79c0.83-.41,1.57-0.86,2.39-1.32a1.31,1.31,0,0,1,1.61,0,1.48,1.48,0,0,1,.21,1.73,4,4,0,0,1-.83,1c-0.41.41-.86,0.83-1.28,1.24a7.83,7.83,0,0,1-5.45,2.27,8.09,8.09,0,0,1-3.14-.21,9.4,9.4,0,0,1-4.38-3.18,9.19,9.19,0,0,1-2.11-4.58,13.19,13.19,0,0,1,0-1.82A0.5,0.5,0,0,0,310.59,58.85Z" transform="translate(-22.93 -10.54)"/><path class="cls-1" d="M279.62,51.13c0-.86-0.12-1.73-0.12-2.6a3.26,3.26,0,0,1,1.12-2.64,2.16,2.16,0,0,1,1.9-.5,33.84,33.84,0,0,1,4,.79,35.63,35.63,0,0,1,3.39,1.49c0.45,0.21.91,0.37,1.36,0.58a21.25,21.25,0,0,1,2.23.95,6.2,6.2,0,0,0,2.93.86,2.8,2.8,0,0,1,1.15.21,1.07,1.07,0,0,1,.08,1.94,4.56,4.56,0,0,1-1.65.54,10.73,10.73,0,0,1-7.18-1.08,7.39,7.39,0,0,0-1.7-.5l-1-.25a1.1,1.1,0,0,0-1.49.95c-0.25,1.24.33,2.35,0.41,3.55a11,11,0,0,0,.83,2.73c0.54,1.36.91,2.73,1.57,4a2.88,2.88,0,0,1-1.41,3.51,1.52,1.52,0,0,1-1.57-.17,5.69,5.69,0,0,1-2.06-2.85c-0.58-1.49-1-3-1.53-4.5-0.29-.86-0.66-1.7-1-2.56a5.55,5.55,0,0,1-.29-2.73,12,12,0,0,0,0-1.73S279.58,51.13,279.62,51.13Z" transform="translate(-22.93 -10.54)"/><path class="cls-1" d="M118.87,43.7a3,3,0,0,1,3.06,2c0.5,1.24.86,2.56,1.28,3.8s0.79,2.23,1.15,3.35c0.12,0.45.08,1,.17,1.49s0.29,1.2.37,1.82a7.37,7.37,0,0,1,.12,1.7,0.86,0.86,0,0,1-1.12.74,1.66,1.66,0,0,0-1.53.54,1.44,1.44,0,0,1-2.52-.5,19.85,19.85,0,0,1-.5-2.64,46.55,46.55,0,0,0-1.61-7.89,5.88,5.88,0,0,0-.83-1.61,1.66,1.66,0,0,1,1.15-2.73A7.78,7.78,0,0,1,118.87,43.7Z" transform="translate(-22.93 -10.54)"/><path class="cls-1" d="M341.18,62.44c0,2.11-.95,3.06-2.6,2.93a1.34,1.34,0,0,1-1.15-.66,11.19,11.19,0,0,1-.83-2.31c-0.29-1.2-.45-2.44-0.66-3.63-0.12-.83-0.21-1.65-0.25-2.44-0.08-1.15-.17-2.35-0.21-3.51a10,10,0,0,1,.08-1.15A1.62,1.62,0,0,1,337,50.31a1.48,1.48,0,0,1,1.7.83,13.46,13.46,0,0,1,.86,2.81c0.41,2.19.74,4.38,1.12,6.56C340.82,61.21,341.06,62,341.18,62.44Z" transform="translate(-22.93 -10.54)"/><path class="cls-1" d="M116.31,28.92a5.64,5.64,0,0,1,4.09,2.19,1.65,1.65,0,0,1,.29.79,1.59,1.59,0,0,1-1.28,1.82,6.56,6.56,0,0,1-3.68-.37A2.34,2.34,0,0,1,114.45,31a1.62,1.62,0,0,1,.83-1.65A3.41,3.41,0,0,1,116.31,28.92Z" transform="translate(-22.93 -10.54)"/><path class="cls-1" d="M332.18,38c0.54,0.08,1.44.17,2.35,0.33a1.23,1.23,0,0,1,1.15,1,1.2,1.2,0,0,1-.74,1.2,13.28,13.28,0,0,0-1.73,1.28,2.11,2.11,0,0,1-3.22-.5,2.4,2.4,0,0,1-.33-2C329.87,38.33,330.57,37.92,332.18,38Z" transform="translate(-22.93 -10.54)"/><path class="cls-1" d="M918.21,60A8.21,8.21,0,0,1,917,64.11a8.9,8.9,0,0,1-4.52,4.48c-1.45.62-2.81,1.44-4.21,2.18a5.94,5.94,0,0,1-2.84.79,1.1,1.1,0,0,1-1.15-1.6,3.68,3.68,0,0,0-.32-3.28,33.65,33.65,0,0,1-1.47-4c-0.56-1.7-1-3.42-1.59-5.11-1.08-3.28-2.25-6.55-3.27-9.85-0.65-2.12-1.1-4.29-1.64-6.44-0.14-.59-0.32-1.17-0.41-1.75a1.14,1.14,0,0,1,.59-1.25,1.19,1.19,0,0,1,1.47.2,4.13,4.13,0,0,1,1,1.49q1.29,4,2.44,8c0.35,1.21.55,2.47,0.86,3.69,0.37,1.51,1.18,1.94,2.68,1.73A16.28,16.28,0,0,1,916,56,4.74,4.74,0,0,1,918.21,60Zm-10.83,7.38,0.7-.24a13.35,13.35,0,0,0,1.52-.56c0.73-.37,1.43-0.81,2.13-1.22a10.31,10.31,0,0,0,3-2.65,3.13,3.13,0,0,0-.42-4.67,8.49,8.49,0,0,0-7.4-1.87,3,3,0,0,0-2.48,3.36,5.43,5.43,0,0,0,.18,1c0.56,1.73,1.1,3.49,1.75,5.2C906.64,66.34,906.67,67.11,907.38,67.43Z" transform="translate(-22.93 -10.54)"/><path class="cls-1" d="M861,70.44c-0.38-2.23-.78-4.46-1.14-6.68-0.21-1.27-.44-2.54-0.6-3.82-0.26-2-.42-4-0.69-6.05-0.3-2.28-.67-4.55-1-6.83a4.09,4.09,0,0,1,0-.59,1.48,1.48,0,0,1,2.71-.93,6,6,0,0,1,.7,1.76,25.56,25.56,0,0,1,.37,2.91c0.31,3.43.49,6.88,0.9,10.3a60.76,60.76,0,0,0,1.37,7.77,14.35,14.35,0,0,1,.52,5.52c-0.33,2.47-1.95,3.94-4,5a3.94,3.94,0,0,1-3.53.48,8.71,8.71,0,0,1-1.8-1.19c-1-.83-2.07-1.69-3-2.6a5.36,5.36,0,0,1-1.47-2.93,1.32,1.32,0,0,1,.58-1.48,1.22,1.22,0,0,1,1.47.66,4,4,0,0,1,.39.71,7.45,7.45,0,0,0,2.84,3.13,2.56,2.56,0,0,0,2.83.07,4.46,4.46,0,0,0,2.42-4.18c0-.33,0-0.67,0-1Z" transform="translate(-22.93 -10.54)"/><path class="cls-1" d="M893.62,60.24a7.33,7.33,0,0,1-1.68,5c-0.71.91-1.5,1.77-2.29,2.6a5.21,5.21,0,0,1-6.83.85,12.72,12.72,0,0,1-5.14-6.77,4.48,4.48,0,0,1-.22-1c-0.15-1.46-.26-2.92-0.43-4.38a3.15,3.15,0,0,1,2-3.19,39.58,39.58,0,0,1,5-1.18c2.43-.35,4.56.59,6.56,1.85a6.1,6.1,0,0,1,2.72,4.57C893.47,59.12,893.54,59.68,893.62,60.24Zm-8.72-5.68a3.54,3.54,0,0,0-3.8,3.29c-0.11.59-.11,1.2-0.18,1.8a7.92,7.92,0,0,0,.56,4.13,4.29,4.29,0,0,0,7.35,1.57c1.84-1.81,2.79-3.95,2-6.53C890,55.77,888,54.49,884.9,54.56Z" transform="translate(-22.93 -10.54)"/><path class="cls-1" d="M856.57,32.13a1.34,1.34,0,0,1-.71,1.36,1.21,1.21,0,0,1-1.48-.53,3.64,3.64,0,0,1-.52-1.38,1,1,0,0,1,1.1-1.07A1.73,1.73,0,0,1,856.57,32.13Z" transform="translate(-22.93 -10.54)"/><path class="cls-1" d="M547.31,60.48a12.66,12.66,0,0,1,.24-1.39,21.47,21.47,0,0,1,2.87-6.19,7.83,7.83,0,0,1,5-3.27,13.49,13.49,0,0,1,7.29.06,4.64,4.64,0,0,0,3-.11,2.42,2.42,0,0,1,3.15.93,5.69,5.69,0,0,1,1.1,2.52c0.24,1.25.61,2.49,0.79,3.76a13.44,13.44,0,0,0,1.15,4c0.64,1.31,1.37,2.59,2,3.88,0.48,1,1,1.95,1.35,3a1.38,1.38,0,0,1-1,1.94,3.13,3.13,0,0,1-2.87-.61,8.4,8.4,0,0,1-2.31-3.12,4.3,4.3,0,0,0-1.28-1.81,1,1,0,0,0-1.23-.09c-0.81.48-1.66,0.88-2.5,1.32a24,24,0,0,1-7.11,2.36,4.79,4.79,0,0,1-1.23-.05c-1.07-.11-2.12-0.26-3.18-0.36a5,5,0,0,1-3.86-2.68,16.31,16.31,0,0,1-1.22-3.06A6.93,6.93,0,0,1,547.31,60.48Zm9.15,3.12c0.52-.06,1.14-0.1,1.73-0.18a12.84,12.84,0,0,0,6.44-2.68,3.86,3.86,0,0,0,1.83-3.12,10.57,10.57,0,0,0-.6-2.85c-0.34-1-.88-1.14-1.91-1-1.44.21-2.91,0.41-4.36,0.5a6.09,6.09,0,0,0-4.11,1.57c-0.7.67-1.27,1.46-2,2.12a3.55,3.55,0,0,0-1,3.17c0.2,1.54.84,2.29,2,2.36Z" transform="translate(-22.93 -10.54)"/><path class="cls-1" d="M484.58,65.5c-2.3.39-3.74-.87-4.94-2.6-0.27-.38-0.55-0.75-0.83-1.11a9.08,9.08,0,0,1-1.82-8,10.15,10.15,0,0,1,1.83-3.2,6.52,6.52,0,0,1,3.09-2.4,5.54,5.54,0,0,1,2-.19c1.09,0,2.18.07,3.26,0.13a10.26,10.26,0,0,1,1.7.2,1.76,1.76,0,0,1,.83,2.94,5.1,5.1,0,0,1-1.62,1.29,11.12,11.12,0,0,0-3,2.1,5.73,5.73,0,0,1-1.34,1,3,3,0,0,0-1.36,2.64,1.58,1.58,0,0,0,.7.87c0.44,0.36.95,0.62,0.71,1.33a0.35,0.35,0,0,0,.24.26,6.47,6.47,0,0,0,1.72-.16c1.89-.61,3.35-1.95,5-3a8.12,8.12,0,0,0,1.15-.76,3.57,3.57,0,0,0,1.13-3,21.77,21.77,0,0,0-2.58-7.82c-0.78-1.57-1.53-3.15-2.44-4.64-1.53-2.53-2.78-5.23-4.55-7.63a45.16,45.16,0,0,1-2.76-4.82c-0.2-.36-0.37-0.74-0.59-1.08a7.37,7.37,0,0,1-1-3.39,1.3,1.3,0,0,1,.61-1.33,1.36,1.36,0,0,1,1.46.06,4.56,4.56,0,0,1,1.71,2.09c1,1.82,1.9,3.68,3,5.45,1.24,2.12,2.61,4.17,3.92,6.26a29.31,29.31,0,0,1,2.81,5.88c0.49,1.39,1.19,2.69,1.76,4.06,0.34,0.82.6,1.67,0.9,2.51,0.46,1.31,1,2.6,1.34,3.93a5.61,5.61,0,0,1-1.28,5.58,21.56,21.56,0,0,1-2.44,2.4c-0.78.61-1.73,1-2.57,1.51a5.69,5.69,0,0,0-.89.84A6,6,0,0,1,484.58,65.5Z" transform="translate(-22.93 -10.54)"/><path class="cls-1" d="M407.5,58.49c0.11,0.84.27,1.56,0.31,2.28s0,1.62,0,2.44a24.2,24.2,0,0,0,.12,2.46,1.74,1.74,0,0,1-2.29,1.9A3.38,3.38,0,0,1,403,65.51c-0.26-.66-0.51-1.33-0.72-2-0.33-1.1-.65-2.23-0.94-3.34-0.12-.45-0.13-0.92-0.21-1.37-0.23-1.14-.45-2.3-0.74-3.44a2.53,2.53,0,0,0-.51-0.87c-1.1-1.36-.28-4.23,1.78-4.52a4.28,4.28,0,0,0,3-2.41c0.57-.95,1.14-1.89,1.65-2.88A5.33,5.33,0,0,1,412.41,42a5.91,5.91,0,0,1,3.81,3,18.54,18.54,0,0,1,.78,1.87c0.3,0.73.62,1.44,0.87,2.18,0.58,1.7,1.19,3.4,1.69,5.11s1,3.72,1.36,5.59c0.22,1,.29,2.08.47,3.11,0.11,0.63.35,1.23,0.48,1.86a1.85,1.85,0,0,1-1.14,2.13,2.2,2.2,0,0,1-2.36-1.08,3.66,3.66,0,0,1-.32-1c-0.32-1.82-.62-3.65-0.93-5.49a39.42,39.42,0,0,0-2-6.19,29.59,29.59,0,0,0-1.66-3.7,2.05,2.05,0,0,0-3.79.17,17.21,17.21,0,0,0-1.89,6.15A27.74,27.74,0,0,1,407.5,58.49Z" transform="translate(-22.93 -10.54)"/><path class="cls-1" d="M460.07,46.18a11.25,11.25,0,0,1,2.12.39,3.35,3.35,0,0,1,1.46,1,6.52,6.52,0,0,1,1.25,5.4,17.69,17.69,0,0,1-.73,3c-0.33.81-1,1.45-1.46,2.23a5,5,0,0,1-2.5,2.23c-0.63.29-1.22,0.66-1.83,1a0.44,0.44,0,0,0-.12.75,5.06,5.06,0,0,0,3.43,2.06c1.05,0.12,2.1.37,3.15,0.57a1.06,1.06,0,0,1,.5.17c1.27,1,2.13.11,3-.67,0.32-.28.61-0.6,0.94-0.88a1.16,1.16,0,0,1,1.31-.16,1,1,0,0,1,.55,1.13,7.24,7.24,0,0,1-1.87,4.34,3.31,3.31,0,0,1-1.54.76,11.45,11.45,0,0,1-5.05-.06,26.69,26.69,0,0,1-6.4-2.06c-2.35-1.18-4.19-2.82-4.77-5.5a9.29,9.29,0,0,1-.11-2,19,19,0,0,1,.56-5,12.63,12.63,0,0,1,3.42-6c0.88-.84,1.54-1.9,2.78-2.28C458.81,46.48,459.47,46.33,460.07,46.18Z" transform="translate(-22.93 -10.54)"/><path class="cls-1" d="M442.2,68.61c-1.25.21-2.44-.34-3.66-0.59a11.12,11.12,0,0,1-6.7-4.78A10.24,10.24,0,0,1,430.46,60a17.75,17.75,0,0,1-.61-3.51,5.23,5.23,0,0,1,.27-2c0.52-1.54,1.11-3.08,1.75-4.6a6.66,6.66,0,0,1,2.28-2.73,4.22,4.22,0,0,1,4.06-.6,5.46,5.46,0,0,1,3.11,2.14,4.37,4.37,0,0,1,.7,2.21c0.06,1,.11,2,0.18,3.06A3.48,3.48,0,0,1,440,57.61a15.7,15.7,0,0,0-2.47,1.28,1.2,1.2,0,0,0-.48.75A3.28,3.28,0,0,0,439.33,63a13.56,13.56,0,0,0,2.51.76,5.17,5.17,0,0,0,3-.57c0.61-.26,1.17-0.6,1.78-0.88a1.63,1.63,0,0,1,2.09.32A1.78,1.78,0,0,1,448.4,65c-1,.83-1.95,1.63-2.86,2.5A4.25,4.25,0,0,1,442.2,68.61Z" transform="translate(-22.93 -10.54)"/><path class="cls-1" d="M514,69.08c-0.54.13-1.48,0.32-2.4,0.57a2.3,2.3,0,0,1-2.94-1.43,2.15,2.15,0,0,1,.55-2.13,5.28,5.28,0,0,1,3.57-1.73,7,7,0,0,1,1-.05,3.67,3.67,0,0,0,3.64-3.76,2.45,2.45,0,0,0,0-1.13,3.47,3.47,0,0,0-2-1.5c-1.67-.5-3.32-1.05-5-1.53a7.35,7.35,0,0,1-3.92-3c-0.28-.37-0.52-0.78-0.76-1.17a3.1,3.1,0,0,1,0-3.4,6.73,6.73,0,0,1,3.69-3.18c1.09-.37,2.11-0.94,3.16-1.43a3.55,3.55,0,0,1,4.41.94,1.32,1.32,0,0,1,.17,2,12.24,12.24,0,0,1-2.14,1.75c-0.61.43-1.32,0.71-1.95,1.14a14,14,0,0,0-1.48,1.22,0.5,0.5,0,0,0,0,.47A10.45,10.45,0,0,0,513.3,53c1,0.53,2.06,1,3.11,1.41a15.48,15.48,0,0,1,3.93,2.47,2.64,2.64,0,0,1,.94,1.93,28.17,28.17,0,0,1,.08,4.17A6.93,6.93,0,0,1,519,67.45,6.55,6.55,0,0,1,514,69.08Z" transform="translate(-22.93 -10.54)"/><path class="cls-1" d="M607.8,47.24c0.18-1.54,1.26-2.51,2.28-3.5a5.48,5.48,0,0,1,2.79-1.1,14.64,14.64,0,0,1,6,0c0.72,0.13,1.49,0,2.22.13,0.9,0.15,1.78.41,2.67,0.61,0.28,0.07.56,0.09,0.84,0.14a2.89,2.89,0,0,1,1.85.88,11.61,11.61,0,0,1,2.44,3.42,18.19,18.19,0,0,1,1.29,7.06,4.46,4.46,0,0,1-.64,2A16.38,16.38,0,0,1,626,60.94a5.32,5.32,0,0,0-.64.64A4,4,0,0,1,622.68,63c-1.32.15-2.65,0.25-4,.36a1.52,1.52,0,0,0-1.41,2.33,6.44,6.44,0,0,0,.44.79,2.59,2.59,0,0,1,.32,2.05c-0.22,1-.44,1.91-0.66,2.86,0,0.08-.05.16-0.07,0.22A1.64,1.64,0,0,1,615.9,73a1.88,1.88,0,0,1-1.8-1.26c-0.51-1.6-.94-3.2-1.38-4.82-0.32-1.18-.64-2.38-0.94-3.58a4.85,4.85,0,0,1-.29-1.24,15,15,0,0,0-1.38-5.72,16.32,16.32,0,0,1-.67-2.11,2.38,2.38,0,0,1,.5-2c0.61-.86.53-1.24-0.41-1.73a3.35,3.35,0,0,1-1.6-2.5c0-.13-0.08-0.26-0.11-0.4S607.8,47.36,607.8,47.24Zm7.51,6.64h0c0,0.28,0,.57,0,0.86a20.09,20.09,0,0,0,.35,2.39,1.22,1.22,0,0,0,1.51,1,16,16,0,0,0,2.83-.76,3.38,3.38,0,0,1,2.92,0,1.43,1.43,0,0,0,1.75-.33,12.2,12.2,0,0,0,1.29-1.4,2.9,2.9,0,0,0,.55-1.19,7.56,7.56,0,0,0-1.27-5.51,3.79,3.79,0,0,0-2.61-1.9c-0.45-.06-0.92-0.06-1.37-0.11a18.37,18.37,0,0,0-4.79-.07c-1.17.18-1.76,0.46-1.65,1.89C615,50.46,615.15,52.17,615.31,53.88Z" transform="translate(-22.93 -10.54)"/><path class="cls-1" d="M818,71.1c-0.61,0-1.23-.06-1.84-0.12-2.29-.22-4.64-0.17-6.83-1a19,19,0,0,1-6.64-3.6,11.35,11.35,0,0,1-3.37-5.83,7.37,7.37,0,0,0-.65-1.57,1.48,1.48,0,0,1,0-1.5,18.37,18.37,0,0,0,1.6-5c0.57-2.51,1.9-4.57,4.5-5.23s4.79-.3,6.31,2.24a8.7,8.7,0,0,1,1.3,2.77,5.11,5.11,0,0,1-1.93,5.37,10.71,10.71,0,0,1-4.48,2.18c-1.7.36-2.14,1.54-1.22,3a4.35,4.35,0,0,0,1.82,1.62,33.47,33.47,0,0,0,7.5,2.59,38.52,38.52,0,0,0,5.54.7c0.76,0.06,1.53.23,2.3,0.31,0.61,0.06,1.23,0,1.85.08a0.8,0.8,0,0,1,.83.53,0.88,0.88,0,0,1-.38,1,4.67,4.67,0,0,1-2.2,1c-0.79.16-1.58,0.27-2.37,0.4C819.05,71.05,818.52,71.07,818,71.1Zm-9.3-17a1.61,1.61,0,0,0-2-1.39,3.1,3.1,0,0,0-2,2.62,1.15,1.15,0,0,0,.4,1.2,1,1,0,0,0,1.25,0,18.21,18.21,0,0,0,2-1.58A2.74,2.74,0,0,0,808.67,54.08Z" transform="translate(-22.93 -10.54)"/><path class="cls-1" d="M795.47,66.4a8.83,8.83,0,0,1,1.33,0,1,1,0,0,1,.72.36,0.81,0.81,0,0,1-.19.78,4.26,4.26,0,0,1-1.35.6,22.77,22.77,0,0,1-3,.56,3.46,3.46,0,0,1-3-1.31,6.11,6.11,0,0,1-1.58-3.83,6.33,6.33,0,0,0-2.63-4.86,2.94,2.94,0,0,0-3-.21c-1.1.4-2.19,0.8-3.27,1.25a7.86,7.86,0,0,1-4.62.32,4.64,4.64,0,0,1-1.44-.79c-0.35-.22-0.62-0.54-1-0.77a1.51,1.51,0,0,0-2,.21,7,7,0,0,0-2.08,3.93,17.58,17.58,0,0,0,.12,2.76c0.06,0.83.23,1.66,0.22,2.49a1.85,1.85,0,0,1-.55,1.11,3.29,3.29,0,0,1-2.14.92,1.52,1.52,0,0,1-1.37-.73,5.3,5.3,0,0,1-.83-2.5c-0.27-1.69-.4-3.4-0.72-5.08s-0.78-3.15-1.18-4.73c-0.24-1-.52-2-0.7-2.94a2.45,2.45,0,0,1,.42-1.9,1.2,1.2,0,0,1,1.82-.31,3.67,3.67,0,0,1,1.22,1.6c0.18,0.4.34,0.82,0.53,1.22,0.49,1,1,1.13,2,.59a29.43,29.43,0,0,1,3.17-1.57,4.42,4.42,0,0,1,5.11,1,3,3,0,0,0,1.9,1.26,6,6,0,0,0,3.12-.45c1-.51,1.94-1,2.85-1.62a4.78,4.78,0,0,1,3.59-.66,2.1,2.1,0,0,1,1.2.69c1.07,1.39,2.11,2.82,3.06,4.29a6,6,0,0,1,.68,4.14,3.9,3.9,0,0,0,1,3.29A3.12,3.12,0,0,0,795.47,66.4Z" transform="translate(-22.93 -10.54)"/><path class="cls-1" d="M654.32,56.33a26.55,26.55,0,0,0,1,5,7.26,7.26,0,0,1,.3,1.72,10.51,10.51,0,0,0,.85,3.92,2.92,2.92,0,0,0,1.11,1.39,1.61,1.61,0,0,1,.17,2.83,4.25,4.25,0,0,1-2.62,1.31,2,2,0,0,1-1.66-.86,7.37,7.37,0,0,1-1.63-3.74,7.15,7.15,0,0,0-.46-1.58,1.21,1.21,0,0,0-1.8-.76A20.8,20.8,0,0,0,647,67.11a7.07,7.07,0,0,1-6,1.2,6.39,6.39,0,0,1-4.6-4.29,20.81,20.81,0,0,1-1-3.51A6.36,6.36,0,0,1,636,56.8c0.31-.62.56-1.28,0.91-1.89a7.66,7.66,0,0,1,1.28-1.81,26.48,26.48,0,0,1,2.92-2.28,4.09,4.09,0,0,1,2.44-.47,10.26,10.26,0,0,1,5.21,1.55,5.4,5.4,0,0,0,2.41.6,3.51,3.51,0,0,1,3.16,3.2C654.32,55.91,654.32,56.13,654.32,56.33Zm-8.59-1.59c-2,.08-3.21.58-4,1.71a16.64,16.64,0,0,0-1.52,2.89,4.55,4.55,0,0,0-.36,2.16,7.93,7.93,0,0,0,.8,2.26,1.48,1.48,0,0,0,1.37,1,18,18,0,0,0,2.67-.27,7.21,7.21,0,0,0,3.37-2,5.82,5.82,0,0,0,1.73-6.26,1.66,1.66,0,0,0-1.6-1.32C647.29,54.77,646.35,54.76,645.73,54.74Z" transform="translate(-22.93 -10.54)"/><path class="cls-1" d="M692.78,53l-3.52.7-0.83.18c-1.2.24-1.63,0.66-1.61,1.85a14.07,14.07,0,0,0,1.51,6.65c0.26,0.47.47,1,.73,1.44a1.62,1.62,0,0,0,1.52.89h4.1a2.12,2.12,0,0,1,.65.09,1.21,1.21,0,0,1,.94,1.08,1.15,1.15,0,0,1-.69,1.25,20,20,0,0,1-2.86,1,24.38,24.38,0,0,1-2.72.44,4.86,4.86,0,0,1-5.16-2.9c-0.54-1.29-1-2.64-1.41-4a1.31,1.31,0,0,0-1.29-1.08,1.58,1.58,0,0,1-1.31-2.25c0.19-.51.41-1,0.59-1.49a1.45,1.45,0,0,0,.06-0.56,0.73,0.73,0,0,0-1.05-.7c-0.31.12-.59,0.31-0.89,0.45a1.5,1.5,0,0,1-1.8-.28,1.53,1.53,0,0,1-.48-1.83,4.59,4.59,0,0,1,2.06-2.35l0.8-.42a3.07,3.07,0,0,0,1.56-1.94,3.58,3.58,0,0,1,.71-1.36,1.56,1.56,0,0,1,2.33,0,1.69,1.69,0,0,1,.26.33,2.25,2.25,0,0,0,2.44,1,4.29,4.29,0,0,1,1.6.06c1.8,0.52,3.58,1.11,5.38,1.69a3.41,3.41,0,0,1,.89.45,0.73,0.73,0,0,1-.12,1.37,4.63,4.63,0,0,1-1.14.28c-0.39.06-.79,0-1.19,0.06A0.15,0.15,0,0,1,692.78,53Z" transform="translate(-22.93 -10.54)"/><path class="cls-1" d="M734.75,69.41a7.52,7.52,0,0,0,1.63-.65c1-.65,2-1.45,3-2.16a2.72,2.72,0,0,1,1-.49,0.87,0.87,0,0,1,1,1.18,0.65,0.65,0,0,1-.06.18c-0.84,1.2-1.45,2.6-2.73,3.44A11.83,11.83,0,0,1,735,72.86a9.51,9.51,0,0,1-2.44.26,3.6,3.6,0,0,1-2.84-1.82,16.54,16.54,0,0,1-2-5q-0.25-.86-0.45-1.74a2.93,2.93,0,0,0-1.62-2.11,3.2,3.2,0,0,1-1.52-1.51,1.45,1.45,0,0,1,.25-1.75,3.37,3.37,0,0,1,.37-0.38,2.59,2.59,0,0,0,.88-2.44c-0.09-.89-0.29-1.76-0.37-2.63-0.11-1.25-.16-2.53-0.22-3.79a1.4,1.4,0,0,1,.13-0.5,1.32,1.32,0,0,1,1.21-1,1.22,1.22,0,0,1,1.27.84,17.12,17.12,0,0,1,.69,2.65c0.2,1.11.23,2.24,0.45,3.35,0.39,2,1.28,2.48,3.35,2.22a16.15,16.15,0,0,1,5-.27c0.46,0.08.92,0.25,1.39,0.31s1.17,0.08,1.75.13a0.75,0.75,0,0,1,.8.62,0.7,0.7,0,0,1-.64.81c-0.83.19-1.67,0.37-2.51,0.48a13.65,13.65,0,0,0-4.9,1.54,11.77,11.77,0,0,0-1.09.66,2.53,2.53,0,0,0-1.07,3,24.32,24.32,0,0,0,1.31,3.3A2.54,2.54,0,0,0,734.75,69.41Z" transform="translate(-22.93 -10.54)"/><path class="cls-1" d="M674.2,51.74c-0.32,0-.85-0.09-1.38-0.16A2.08,2.08,0,0,0,670.25,53a20.29,20.29,0,0,0-.72,3.17c-0.18,1.09-.3,2.19-0.4,3.28a9.9,9.9,0,0,0,.09,1.28c0.06,1.17.07,2.36,0.16,3.53a24.47,24.47,0,0,0,.36,2.63,1.64,1.64,0,0,1-.71,1.86c-0.35.25-.71,0.47-1.07,0.71a1,1,0,0,1-1.73-.37,9.91,9.91,0,0,1-.83-2.25,21.8,21.8,0,0,1-.42-3,16,16,0,0,0-1.16-4.76,54.4,54.4,0,0,1-1.73-5.3,5.44,5.44,0,0,1-.28-1.71,1.43,1.43,0,0,1,1.77-1.44,3.06,3.06,0,0,0,3.23-1.28,9.11,9.11,0,0,1,1.42-1.33c1.73-1.32,3.51-.92,5.27,0a4.63,4.63,0,0,1,1.94,1.85C676.06,50.92,675.63,51.69,674.2,51.74Z" transform="translate(-22.93 -10.54)"/><path class="cls-1" d="M708.6,61.34l-5.94-.15-2,0a1.72,1.72,0,0,1-1.76-1,2.14,2.14,0,0,1,.41-2.26,2.17,2.17,0,0,1,1.81-.8c1.13,0,2.25.1,3.37,0.16a18.8,18.8,0,0,1,2,.16c0.61,0.11,1.2.4,1.82,0.49a11.39,11.39,0,0,0,2,0,11.2,11.2,0,0,1,3.31.15,1,1,0,0,1,.27,2,9,9,0,0,1-3.56,1.09C709.8,61.21,709.24,61.27,708.6,61.34Z" transform="translate(-22.93 -10.54)"/><path class="cls-1" d="M750.82,57.78c0-.28,0-0.57.11-0.85a1.36,1.36,0,0,1,2-1,2.88,2.88,0,0,1,1.69,2.47,48.79,48.79,0,0,0,1.44,6.31c0.13,0.56.49,1.06,0.65,1.62a5.43,5.43,0,0,1,.33,1.88,1.88,1.88,0,0,1-2.91,1.36,4.54,4.54,0,0,1-2-3.2c-0.31-1.7-.6-3.4-0.86-5.1-0.17-1.16-.28-2.33-0.41-3.49h0Z" transform="translate(-22.93 -10.54)"/><path class="cls-1" d="M748.09,45.27A1.14,1.14,0,0,1,747,46.56,2.55,2.55,0,0,1,744.12,45a1.57,1.57,0,0,1,.93-2.17,1.45,1.45,0,0,1,.87.07,4,4,0,0,1,2.07,2A1.24,1.24,0,0,1,748.09,45.27Z" transform="translate(-22.93 -10.54)"/></svg>